Coordinates
version=1
nRows=10
nColumns=38
inDegrees=yes

Units are S.I. units (second, meters, Newtons, ...)
Angles are in degrees.

endheader
time	pelvis_tilt	pelvis_list	pelvis_rotation	pelvis_tx	pelvis_ty	pelvis_tz	hip_flexion_r	hip_adduction_r	hip_rotation_r	knee_angle_r	ankle_angle_r	subtalar_angle_r	mtp_angle_r	hip_flexion_l	hip_adduction_l	hip_rotation_l	knee_angle_l	ankle_angle_l	subtalar_angle_l	mtp_angle_l	lumbar_extension	lumbar_bending	lumbar_rotation	arm_flex_r	arm_add_r	arm_rot_r	elbow_flex_r	pro_sup_r	wrist_flex_r	wrist_dev_r	arm_flex_l	arm_add_l	arm_rot_l	elbow_flex_l	pro_sup_l	wrist_flex_l	wrist_dev_l
      1.51000000	     -0.27166976	      1.88844943	     -6.23027948	      0.07442238	      0.94540893	     -0.23690549	     -3.93154633	     -2.46582844	     -0.91834627	    -43.72917788	     -4.67608975	      8.00587537	      0.00000000	     24.23284218	      5.51508758	      0.07236297	    -23.36481740	     -2.71235715	    -12.03966280	      0.00000000	    -10.64481476	     -4.14293753	      1.56303493	      6.13784665	     -7.89143783	     27.74581616	     54.09606835	     39.74171560	      0.00000000	      0.00000000	     -7.46310266	     -5.99218007	     14.73974497	     42.21364420	     39.74171560	      0.00000000	      0.00000000
      1.52000000	      0.01337172	      2.04578862	     -6.20968377	      0.08646543	      0.94758179	     -0.23758360	     -2.81109460	     -2.72328845	     -0.11343198	    -46.34164117	     -7.74570977	      8.67643939	      0.00000000	     23.15479882	      5.81881552	     -0.13464471	    -23.34167982	     -2.09065781	    -12.18080784	      0.00000000	    -10.96321679	     -4.43336746	      1.17014179	      5.68335178	     -7.75992176	     27.81472105	     53.91373856	     39.76677131	      0.00000000	      0.00000000	     -7.31709916	     -6.01412477	     14.77066056	     42.17507113	     39.76677131	      0.00000000	      0.00000000
      1.53000000	      0.10851676	      2.34964975	     -6.19302014	      0.09820862	      0.94924903	     -0.23839735	     -1.28549740	     -3.13832138	      0.59713538	    -49.30301007	     -8.23185238	      9.97174387	      0.00000000	     22.20024197	      6.22571793	     -0.52050347	    -23.06233610	     -1.62552961	    -11.95506086	      0.00000000	    -11.02864480	     -4.83935560	      0.72380531	      5.25213259	     -7.64614661	     27.86150170	     53.46281020	     39.83077636	      0.00000000	      0.00000000	     -6.98615620	     -6.06915162	     14.84910410	     42.09567893	     39.83077636	      0.00000000	      0.00000000
      1.54000000	      0.17433588	      2.54630602	     -6.21511619	      0.10965455	      0.95053757	     -0.23921456	      0.18365257	     -3.46862297	      0.83767091	    -52.09731438	     -6.43735191	      9.83351974	      0.00000000	     21.29314682	      6.61783662	     -0.34929576	    -22.85687672	     -0.86214219	    -11.85109340	      0.00000000	    -11.13668073	     -5.07671284	      0.32423665	      4.93800453	     -7.59516888	     27.92061270	     53.21488921	     39.85906814	      0.00000000	      0.00000000	     -6.68969468	     -6.08554726	     14.88544477	     42.11038651	     39.85906814	      0.00000000	      0.00000000
      1.55000000	      0.24748332	      2.66690746	     -6.19525676	      0.12133344	      0.95163276	     -0.23993838	      1.70827042	     -3.59275511	      1.02057115	    -54.74136658	     -5.15287308	      8.77752757	      0.00000000	     20.45837610	      6.93075799	     -0.26704123	    -22.86095200	     -0.09652595	    -11.98717137	      0.00000000	    -11.22049184	     -5.23504398	     -0.14327443	      4.60114438	     -7.55883395	     27.99109787	     52.96270127	     39.88276674	      0.00000000	      0.00000000	     -6.41883106	     -6.11728825	     14.92088995	     42.14512477	     39.88276674	      0.00000000	      0.00000000
      1.56000000	      0.13076899	      2.79745497	     -6.34238843	      0.13232099	      0.95219367	     -0.24031799	      3.65705738	     -3.59106044	      1.37485831	    -57.26103751	     -4.99199042	      6.17433801	      0.00000000	     19.99341357	      7.18327752	     -0.22815111	    -23.08763322	      0.55204526	    -12.09861129	      0.00000000	    -11.12247017	     -5.38909604	     -0.44805319	      4.58456826	     -7.35528876	     28.39556153	     51.68303573	     40.09980822	      0.00000000	      0.00000000	     -6.09662117	     -6.29155506	     15.41538917	     42.14689615	     40.09980822	      0.00000000	      0.00000000
      1.57000000	      0.16539532	      2.84538679	     -6.49823434	      0.14340224	      0.95282916	     -0.24052062	      5.46627322	     -3.86610885	      1.12887419	    -59.62660104	     -4.59377381	      4.38638706	      0.00000000	     19.30352716	      7.37847893	     -0.09297440	    -23.25868738	      1.43535685	    -12.26017808	      0.00000000	    -11.20370025	     -5.46765993	     -0.75094407	      4.33632642	     -7.38168825	     28.50636098	     51.50675986	     40.12892460	      0.00000000	      0.00000000	     -5.73075159	     -6.32664397	     15.45978867	     42.25009501	     40.12892460	      0.00000000	      0.00000000
      1.58000000	      0.08258080	      2.74162227	     -6.73886367	      0.15406161	      0.95335860	     -0.24044078	      7.39907434	     -3.69918620	      1.23579638	    -61.72091624	     -4.43411044	      2.00130225	      0.00000000	     18.76829365	      7.36047737	     -0.10871309	    -23.46944170	      2.23037625	    -12.49933958	      0.00000000	    -11.17174865	     -5.36681796	     -0.93135993	      4.08747072	     -7.41929625	     28.69947350	     51.20931568	     40.18120814	      0.00000000	      0.00000000	     -5.35456982	     -6.40509839	     15.57944186	     42.43043414	     40.18120814	      0.00000000	      0.00000000
      1.59000000	      0.12169931	      2.65184955	     -6.97263716	      0.16468149	      0.95406739	     -0.24033299	      9.15604586	     -3.56116498	      1.35210391	    -63.54958321	     -3.64127460	      0.61335891	      0.00000000	     18.01268224	      7.38987578	      0.00924001	    -23.53325609	      3.19695041	    -12.68848829	      0.00000000	    -11.27959123	     -5.29447468	     -1.11932701	      3.94929730	     -7.45605172	     28.78368771	     51.05374780	     40.20193210	      0.00000000	      0.00000000	     -4.87664932	     -6.40469100	     15.63666159	     42.63634103	     40.20193210	      0.00000000	      0.00000000
      1.60000000	     -0.03671038	      2.47779024	     -7.28259712	      0.17495893	      0.95476211	     -0.23989843	     11.09943020	     -2.93411256	      1.91146508	    -64.99065346	     -3.08072978	     -1.64107545	      0.00000000	     17.49966630	      7.22379260	     -0.09954001	    -23.61191749	      3.83796946	    -12.68955778	      0.00000000	    -11.20898767	     -5.11805429	     -1.16150643	      3.65474620	     -7.52983823	     29.02802996	     50.63782247	     40.26094459	      0.00000000	      0.00000000	     -4.43325089	     -6.51727430	     15.85071615	     43.01074585	     40.26094459	      0.00000000	      0.00000000
